<?xml version="1.0" encoding="utf-8"?>
<!-- Generator: Adobe Illustrator 28.1.0, SVG Export Plug-In . SVG Version: 6.00 Build 0)  -->
<svg version="1.1" id="Layer_1" xmlns="http://www.w3.org/2000/svg" x="0px" y="0px"
     viewBox="0 0 841.9 267.4" style="enable-background:new 0 0 841.9 267.4;" xml:space="preserve">
<style type="text/css">
	.st0{fill:none;stroke:#FFFFFF;stroke-width:6.212;stroke-miterlimit:10;}
	.st1{fill:none;stroke:#FFFFFF;stroke-width:11.4432;stroke-miterlimit:10;}
	.st2{fill:#FFFFFF;stroke:#FFFFFF;stroke-width:5.5932;stroke-miterlimit:10;}
	.st3{fill:#FFFFFF;}
	.st4{fill:none;stroke:#FFFFFF;stroke-width:3.1877;stroke-miterlimit:10;}
</style>
    <circle class="st0" cx="133.4" cy="43.7" r="24.4"/>
    <circle class="st0" cx="39.4" cy="141.9" r="24.4"/>
    <circle class="st0" cx="124.6" cy="223.7" r="24.4"/>
    <circle class="st1" cx="253.6" cy="136.6" r="55.9"/>
    <circle class="st2" cx="152.6" cy="109.3" r="22"/>
    <circle class="st2" cx="105.5" cy="157.6" r="22"/>
    <g>

		<rect x="134.2" y="67.3" transform="matrix(0.9602 -0.2793 0.2793 0.9602 -16.8924 41.4204)" class="st3" width="5.4" height="25.5"/>

        <rect x="147.2" y="63.5" transform="matrix(0.9602 -0.2793 0.2793 0.9602 -15.3356 44.8967)" class="st3" width="5.4" height="25.5"/>
</g>
    <g>

		<rect x="106" y="180.1" transform="matrix(0.9602 -0.2793 0.2793 0.9602 -49.5201 38.0159)" class="st3" width="5.4" height="25.5"/>

        <rect x="118.9" y="176.3" transform="matrix(0.9602 -0.2793 0.2793 0.9602 -47.9633 41.4922)" class="st3" width="5.4" height="25.5"/>
</g>
    <rect x="70.8" y="140.3" transform="matrix(0.2382 -0.9712 0.9712 0.2382 -91.0028 186.7354)" class="st3" width="5.4" height="22.1"/>
    <rect x="118.2" y="131.1" transform="matrix(0.6919 -0.722 0.722 0.6919 -56.796 134.5396)" class="st3" width="22.1" height="5.4"/>
    <g>
	<circle class="st4" cx="295" cy="65.4" r="12.5"/>
        <path class="st3" d="M290.3,63.3h9.3c1.2,0,2.1,0.9,2.1,2.1l0,0c0,1.2-0.9,2.1-2.1,2.1h-9.3c-1.2,0-2.1-0.9-2.1-2.1l0,0
		C288.2,64.2,289.2,63.3,290.3,63.3z"/>
</g>
    <g>
	<circle class="st4" cx="60.9" cy="100.8" r="12.5"/>
        <path class="st3" d="M56.1,98.7h9.3c1.2,0,2.1,0.9,2.1,2.1l0,0c0,1.2-0.9,2.1-2.1,2.1h-9.3c-1.2,0-2.1-0.9-2.1-2.1l0,0
		C54.1,99.6,55.1,98.7,56.1,98.7z"/>
</g>
    <rect x="180.6" y="107.5" transform="matrix(0.2382 -0.9712 0.9712 0.2382 24.5106 268.3696)" class="st3" width="5.4" height="22.1"/>
    <g>
	<path class="st3" d="M347.4,139.4l-18.9-53.2h18.1l11.6,35.1h0.4l11.8-35.1h16.2l-18.8,53.2l19.7,55.8h-18.1l-12.5-37.9h-0.4
		l-12.7,37.9h-16.2L347.4,139.4L347.4,139.4z"/>
        <path class="st3" d="M440.3,86.2h23.2l17.7,109.1h-17.2l-3.2-21.6v0.4h-19.5l-3.2,21.4h-15.9L440.3,86.2L440.3,86.2z M458.9,159
		l-7.6-53.9H451l-7.5,53.9H458.9L458.9,159z"/>
        <path class="st3" d="M520.6,86.2h17.2v93.4h28.1v15.5h-45.3V86.2L520.6,86.2z"/>
        <path class="st3" d="M619.2,86.2h23.2l17.7,109.1H643l-3.2-21.6v0.4h-19.5l-3.2,21.4h-15.9L619.2,86.2L619.2,86.2z M637.8,159
		l-7.6-53.9h-0.4l-7.5,53.9H637.8L637.8,159z"/>
        <path class="st3" d="M705.8,101.8h-17.9V86.2h52.9v15.5H723v93.4h-17.2V101.8L705.8,101.8z"/>
        <path class="st3" d="M780.3,86.2H827v15.5h-29.5v28.8h23.5v15.5h-23.5v33.5H827v15.5h-46.7V86.2L780.3,86.2z"/>
</g>
</svg>
